# AST/ASF file generated using VICON BodyLanguage
# -----------------------------------------------
:version 1.10
:name VICON
:units
  mass 1.0
  length 0.45
  angle deg
:documentation
   .ast/.asf automatically generated from VICON data using
   VICON BodyBuilder and BodyLanguage model FoxedUp or BRILLIANT.MOD
:root
   order TX TY TZ RX RY RZ
   axis XYZ
   position 0 0 0  
   orientation 0 0 0 
:bonedata
  begin
     id 1 
     name lhipjoint
     direction 0.653368 -0.678499 0.335782 
     length 2.51848 
     axis 0 0 0  XYZ
  end
  begin
     id 2 
     name lfemur
     direction 0.34202 -0.939693 0  
     length 6.57749  
     axis 0 0 20  XYZ
    dof rx ry rz
    limits (-160.0 20.0)
           (-70.0 70.0)
           (-60.0 70.0)
  end
  begin
     id 3 
     name ltibia
     direction 0.34202 -0.939693 0   
     length 7.94618   
     axis 0 0 20   XYZ
    dof rx
    limits (-10.0 170.0)
  end
  begin
     id 4 
     name lfoot
     direction 0.0811271 -0.222895 0.971461   
     length 2.31339   
     axis -90 7.62852e-016 20   XYZ
    dof rx rz
    limits (-45.0 90.0)
           (-70.0 20.0)
  end
  begin
     id 5 
     name ltoes
     direction 1.53568e-011 -4.21885e-011 1   
     length 1.15935   
     axis -90 7.62852e-016 20   XYZ
    dof rx
    limits (-90.0 20.0)
  end
  begin
     id 6 
     name rhipjoint
     direction -0.640058 -0.688614 0.340788   
     length 2.48149  
     axis 0 0 0  XYZ 
  end
  begin
     id 7 
     name rfemur
     direction -0.34202 -0.939693 0   
     length 6.57875   
     axis 0 0 -20   XYZ
    dof rx ry rz
    limits (-160.0 20.0)
           (-70.0 70.0)
           (-70.0 60.0)
  end
  begin
     id 8 
     name rtibia
     direction -0.34202 -0.939693 0   
     length 7.977   
     axis 0 0 -20   XYZ
    dof rx
    limits (-10.0 170.0)
 end
 begin
     id 9 
     name rfoot
     direction -0.0979793 -0.269196 0.958089   
     length 2.19857  
     axis -90 -7.62852e-016 -20   XYZ
    dof rx rz
    limits (-45.0 90.0)
           (-20.0 70.0)
  end
  begin
     id 10 
     name rtoes
     direction -1.53556e-011 -4.21868e-011 1   
     length 1.09838   
     axis -90 -7.62852e-016 -20   XYZ
    dof rx
    limits (-90.0 20.0)
  end
  begin
     id 11 
     name lowerback
     direction 0.0149039 0.998517 -0.0523597   
     length 2.10809   
     axis 0 0 0   XYZ
    dof rx ry rz
    limits (-20.0 45.0)
           (-30.0 30.0)
           (-30.0 30.0)
  end
  begin
     id 12 
     name upperback
     direction -0.00882659 0.999418 -0.0329624   
     length 2.1102   
     axis 0 0 0   XYZ
    dof rx ry rz
    limits (-20.0 45.0)
           (-30.0 30.0)
           (-30.0 30.0)
  end
  begin
     id 13 
     name thorax
     direction -0.0165585 0.999826 -0.0085833   
     length 2.11039   
     axis 0 0 0   XYZ
    dof rx ry rz
    limits (-20.0 45.0)
           (-30.0 30.0)
           (-30.0 30.0)
  end
  begin
     id 14 
     name lowerneck
     direction -0.0130877 0.999911 0.00260353   
     length 1.73253   
     axis 0 0 0   XYZ
    dof rx ry rz
    limits (-20.0 45.0)
           (-30.0 30.0)
           (-30.0 30.0)
  end
  begin
     id 15 
     name upperneck
     direction -0.0348454 0.928205 -0.370435   
     length 1.66692   
     axis 0 0 0   XYZ
    dof rx ry rz
    limits (-20.0 45.0)
           (-30.0 30.0)
           (-30.0 30.0)
  end
  begin
     id 16
     name head
     direction -0.00807754 0.992494 -0.122026  
     length 1.72765  
     axis 0 0 0   XYZ
    dof rx ry rz
    limits (-20.0 45.0)
           (-30.0 30.0)
           (-30.0 30.0)
  end
  begin
     id 17 
     name lclavicle
     direction 0.987582 0.144023 0.0627671  
     length 3.49235  
     axis 0 0 0   XYZ
    dof ry rz
    limits (-20.0 10.0)
           (0.0 20.0)
  end
  begin
     id 18 
     name lhumerus
     direction 1 -4.48958e-011 -1.45183e-018   
     length 5.41917   
     axis 180 -30 -90   XYZ
    dof rx ry rz
    limits (-60.0 90.0)
           (-90.0 90.0)
           (-90.0 90.0)
  end
  begin
     id 19
     name lradius
     direction 1 -4.48999e-011 5.75106e-027   
     length 2.44373   
     axis 180 -30 -90   XYZ
    dof rx
    limits (-10.0 170.0)
  end
  begin
     id 20
     name lwrist
     direction 1 -4.48987e-011 1.53461e-026   
     length 1.22186   
     axis -1.09697e-014 90 90   XYZ
    dof ry
    limits (-180.0 0.0)
 end
  begin
     id 21 
     name lhand
     direction 1 -4.48881e-011 3.06923e-026   
     length 0.727502   
     axis -1.95843e-014 90 90   XYZ
    dof rx rz
    limits (-90.0 90.0)
           (-45.0 45.0)
  end
  begin
     id 22 
     name lfingers
     direction 1 -4.48907e-011 6.13845e-026   
     length 0.586531   
     axis -3.91686e-014 90 90   XYZ
    dof rx
    limits (0.0 90.0)
  end
  begin
     id 23
     name lthumb
     direction 0.707107 -6.3487e-011 0.707107   
     length 0.842145   
     axis -90 45 2.85299e-015   XYZ
    dof rx rz
    limits (-45.0 45.0)
           (-45.0 45.0)
  end
  begin
     id 24 
     name rclavicle
     direction -0.980998 0.169556 0.0943023   
     length 3.29272  
     axis 0 0 0   XYZ 
    dof ry rz
    limits (-10.0 20.0)
           (-20.0 0.0)
  end
  begin
     id 25 
     name rhumerus
     direction -1 -1.83355e-005 2.45537e-005  
     length 5.58976   
     axis 180 30 90   XYZ
    dof rx ry rz
    limits (-90.0 60.0)
           (-90.0 90.0)
           (-90.0 90.0)
  end
  begin
     id 26 
     name rradius
     direction -1 -4.48967e-011 5.97228e-027   
     length 2.4806   
     axis 180 30 90   XYZ
    dof rx
    limits (-10.0 170.0)
  end
  begin
     id 27 
     name rwrist
     direction -1 -4.48963e-011 1.53461e-026   
     length 1.2403   
     axis -1.09697e-014 -90 -90   XYZ
    dof ry
    limits (-180.0 0.0)
  end
  begin
     id 28
     name rhand
     direction -1 -4.48881e-011 3.06923e-026   
     length 0.816009   
     axis -1.95843e-014 -90 -90   XYZ
    dof rx rz
    limits (-90.0 90.0)
           (-45.0 45.0)
  end
  begin
     id 29
     name rfingers
     direction -1 -4.49018e-011 6.13845e-026   
     length 0.657887   
     axis -3.91686e-014 -90 -90   XYZ
    dof rx
    limits (0.0 90.0)
  end
  begin
     id 30
     name rthumb
     direction -0.707107 -6.34872e-011 0.707107   
     length 0.944599   
     axis -90 -45 -2.85299e-015   XYZ
    dof rx rz
    limits (-45.0 45.0)
           (-45.0 45.0)
  end
:hierarchy
  begin
    root lhipjoint rhipjoint lowerback
    lhipjoint lfemur
    lfemur ltibia
    ltibia lfoot
    lfoot ltoes
    rhipjoint rfemur
    rfemur rtibia
    rtibia rfoot
    rfoot rtoes
    lowerback upperback
    upperback thorax
    thorax lowerneck lclavicle rclavicle
    lowerneck upperneck
    upperneck head
    lclavicle lhumerus
    lhumerus lradius
    lradius lwrist
    lwrist lhand lthumb
    lhand lfingers
    rclavicle rhumerus
    rhumerus rradius
    rradius rwrist
    rwrist rhand rthumb
    rhand rfingers
  end

#!OML:ASF F:\VICON\USERDATA\INSTALL\rory3\rory3.ASF
:FULLY-SPECIFIED
:DEGREES
1
root 1.76056 16.6047 16.7983 23.0594 3.61335 2.19254
lowerback -17.3579 -0.98457 -1.38883
upperback -8.08039 -1.02571 -1.37266
thorax 1.09732 -0.497973 -0.840275
lowerneck -15.8165 -2.29794 -3.52299
upperneck 35.3626 -2.97415 1.83357
head 15.0478 -1.48714 0.872213
rclavicle 8.65956e-015 1.17283e-014
rhumerus -43.7243 7.37254 -85.2037
rradius 24.4749
rwrist -12.2382
rhand -6.27704 14.5318
rfingers 7.12502
rthumb 19.566 -14.5037
lclavicle 8.65956e-015 1.17283e-014
lhumerus -53.4712 10.6412 67.731
lradius 42.1192
lwrist 3.28898
lhand 1.99216 18.3267
lfingers 7.12502
lthumb 27.4971 46.3391
rfemur -41.8889 1.02299 30.5993
rtibia 42.8847
rfoot -50.1521 -29.8112
rtoes 46.3201
lfemur -21.7965 16.5507 -29.144
ltibia 52.0602
lfoot -14.7873 47.5844
ltoes 46.6888
2
root 1.75239 16.6083 16.795 23.0556 3.55334 2.21792
lowerback -17.3975 -0.945585 -1.53191
upperback -7.96431 -0.948553 -1.38578
thorax 1.24357 -0.45655 -0.761185
lowerneck -15.9713 -2.34269 -3.63968
upperneck 35.4059 -3.04108 1.95333
head 15.1124 -1.51276 0.930171
rclavicle 9.81499e-016 -4.17448e-015
rhumerus -43.9261 8.08578 -85.8263
rradius 24.9741
rwrist -13.0898
rhand -6.93008 14.1955
rfingers 7.12502
rthumb 18.9381 -14.9025
lclavicle 9.81499e-016 -4.17448e-015
lhumerus -53.1717 10.4943 67.8918
lradius 42.457
lwrist 3.39493
lhand 1.93421 18.4916
lfingers 7.12502
lthumb 27.4417 46.5128
rfemur -41.8639 1.54549 30.4156
rtibia 42.7906
rfoot -50.5764 -29.8899
rtoes 46.5084
lfemur -22.0214 16.7123 -29.2289
ltibia 52.2503
lfoot -8.78279 48.6097
ltoes 44.4469
3
root 1.74785 16.6119 16.7921 23.0514 3.54338 2.32725
lowerback -17.4656 -0.955219 -1.70758
upperback -7.83335 -0.928022 -1.41943
thorax 1.42009 -0.443573 -0.695942
lowerneck -15.8351 -2.35855 -3.69668
upperneck 35.1872 -3.07599 2.03607
head 14.9809 -1.52392 0.968789
rclavicle 3.16813e-016 1.35174e-014
rhumerus -44.1145 8.81529 -86.5039
rradius 25.4187
rwrist -14.0826
rhand -7.72928 13.9298
rfingers 7.12502
rthumb 18.1693 -15.2416
lclavicle 3.16813e-016 1.35174e-014
lhumerus -52.8239 10.5178 67.9346
lradius 42.8196
lwrist 3.47342
lhand 2.10075 18.9561
lfingers 7.12502
lthumb 27.6009 46.9519
rfemur -41.8951 1.6687 30.2681
rtibia 42.8236
rfoot -50.5994 -30.1092
rtoes 46.4862
lfemur -22.1096 16.8022 -29.3932
ltibia 52.2979
lfoot -5.45396 48.987
ltoes 42.923
4
root 1.74413 16.6106 16.7932 23.0705 3.5813 2.38444
lowerback -17.6247 -0.949369 -1.81581
upperback -7.70615 -0.895164 -1.4243
thorax 1.63928 -0.425879 -0.637627
lowerneck -15.6264 -2.40708 -3.85961
upperneck 34.9466 -3.1484 2.17585
head 14.8288 -1.55775 1.04358
rclavicle -8.66577e-015 -1.05356e-014
rhumerus -44.3898 9.56698 -87.1619
rradius 25.8615
rwrist -15.2244
rhand -8.53564 13.6628
rfingers 7.12502
rthumb 17.3934 -15.579
lclavicle -8.66577e-015 -1.05356e-014
lhumerus -52.4981 10.4693 68.0608
lradius 43.4827
lwrist 3.52416
lhand 2.59767 20.1353
lfingers 7.12502
lthumb 28.076 48.0542
rfemur -41.915 1.64766 30.2343
rtibia 42.8285
rfoot -50.5167 -30.2318
rtoes 46.0698
lfemur -22.1363 16.8797 -29.4665
ltibia 52.3841
lfoot -4.69319 48.892
ltoes 42.5537
5
root 1.73379 16.6081 16.7827 23.0631 3.48242 2.54259
lowerback -17.4354 -0.951922 -2.16484
upperback -7.68871 -0.84898 -1.42189
thorax 1.56335 -0.394984 -0.426543
lowerneck -15.6571 -2.44929 -3.88007
upperneck 34.9234 -3.17311 2.09805
head 14.8251 -1.58107 1.01022
rclavicle 9.25591e-016 5.1684e-015
rhumerus -44.8048 10.4512 -87.9148
rradius 26.31
rwrist -16.5843
rhand -9.60391 13.9154
rfingers 7.12502
rthumb 16.365 -15.4141
lclavicle 9.25591e-016 5.1684e-015
lhumerus -52.2741 10.5201 68.0827
lradius 44.1074
lwrist 3.30312
lhand 3.56308 21.6024
lfingers 7.12502
lthumb 28.9985 49.3664
rfemur -41.9745 2.18782 29.9191
rtibia 42.8752
rfoot -50.8431 -30.4866
rtoes 45.924
lfemur -22.2074 16.9108 -29.6787
ltibia 52.4372
lfoot -5.84476 48.9014
ltoes 42.8223
6
root 1.7236 16.6067 16.7644 23.0316 3.53574 2.56478
lowerback -16.8702 -0.926132 -2.28794
upperback -7.88804 -0.820056 -1.43291
thorax 1.05814 -0.373511 -0.353537
lowerneck -15.5991 -2.47094 -3.8484
upperneck 35.0326 -3.1933 2.02859
head 14.8617 -1.5953 0.973663
rclavicle -8.08805e-015 -1.11319e-014
rhumerus -45.5648 11.2171 -88.7562
rradius 26.8099
rwrist -18.1111
rhand -10.6495 14.2574
rfingers 7.12502
rthumb 15.3581 -15.1523
lclavicle -8.08805e-015 -1.11319e-014
lhumerus -52.4334 10.1449 68.1739
lradius 44.7257
lwrist 3.39465
lhand 3.91751 22.4595
lfingers 7.12502
lthumb 29.3369 50.1648
rfemur -42.0051 2.66738 29.7918
rtibia 42.8978
rfoot -51.4329 -30.4326
rtoes 46.589
lfemur -22.3546 16.9631 -29.7175
ltibia 52.5209
lfoot -6.57507 48.9082
ltoes 43.1785
7
root 1.72452 16.609 16.7583 22.9929 3.76521 2.756
lowerback -16.5164 -0.98631 -2.36793
upperback -8.02791 -0.901244 -1.50093
thorax 0.725462 -0.410075 -0.387373
lowerneck -15.4505 -2.48112 -3.89612
upperneck 35.1123 -3.20715 2.04821
head 14.8671 -1.60601 0.989833
rclavicle -5.26779e-015 -1.8487e-014
rhumerus -46.4424 12.2177 -89.8555
rradius 27.4076
rwrist -20.1199
rhand -11.6602 14.041
rfingers 7.12502
rthumb 14.3844 -15.4406
lclavicle -5.26779e-015 -1.8487e-014
lhumerus -52.676 9.79577 68.2534
lradius 45.1932
lwrist 3.45999
lhand 3.91843 22.2629
lfingers 7.12502
lthumb 29.3378 49.968
rfemur -42.0055 2.28488 29.6916
rtibia 42.9218
rfoot -51.3829 -30.2243
rtoes 47.095
lfemur -22.3287 16.8738 -29.8877
ltibia 52.5321
lfoot -6.72156 47.4313
ltoes 44.6714
8
root 1.72822 16.6111 16.7591 23.0145 4.0462 2.7931
lowerback -16.4785 -1.01895 -2.2499
upperback -8.03959 -0.961385 -1.52783
thorax 0.691953 -0.443245 -0.491476
lowerneck -15.4197 -2.51372 -3.9791
upperneck 35.1527 -3.2405 2.07626
head 14.8832 -1.62743 1.01097
rclavicle -1.37161e-014 -1.17283e-014
rhumerus -47.1732 13.1905 -90.9539
rradius 27.9658
rwrist -22.2026
rhand -12.8516 14.1326
rfingers 7.12502
rthumb 13.2363 -15.4271
lclavicle -1.37161e-014 -1.17283e-014
lhumerus -52.637 9.73267 68.2449
lradius 45.3505
lwrist 3.27544
lhand 3.82081 21.1578
lfingers 7.12502
lthumb 29.2446 48.8792
rfemur -42.0396 1.67814 29.8364
rtibia 42.9038
rfoot -50.602 -30.1822
rtoes 47.6361
lfemur -22.3181 16.7176 -29.8745
ltibia 52.5739
lfoot -6.82148 46.6874
ltoes 45.1369
9
root 1.72577 16.6108 16.7565 23.0401 4.28348 2.58699
lowerback -16.5365 -1.00305 -2.04452
upperback -7.94985 -0.967659 -1.43684
thorax 0.816922 -0.450878 -0.514559
lowerneck -15.5952 -2.55846 -4.12854
upperneck 35.1959 -3.27628 2.14527
head 14.9514 -1.65105 1.05847
rclavicle 3.69926e-015 -1.39149e-014
rhumerus -47.7692 14.4126 -92.1159
rradius 28.6174
rwrist -24.5822
rhand -14.3082 14.2545
rfingers 7.12502
rthumb 11.8319 -15.3913
lclavicle 3.69926e-015 -1.39149e-014
lhumerus -52.4483 9.73187 68.3364
lradius 45.6243
lwrist 3.24625
lhand 3.71408 20.5285
lfingers 7.12502
lthumb 29.1427 48.2676
rfemur -42.046 1.38828 30.2114
rtibia 42.846
rfoot -50.2673 -31.3785
rtoes 46.7523
lfemur -22.3804 16.6799 -29.595
ltibia 52.6638
lfoot -8.61711 46.2932
ltoes 45.9528
10
root 1.72234 16.6071 16.75 23.0621 4.54299 2.37545
lowerback -16.5864 -0.979075 -1.85471
upperback -7.83894 -0.961417 -1.34533
thorax 0.960134 -0.451644 -0.526298
lowerneck -15.6806 -2.63762 -4.31428
upperneck 35.1112 -3.35743 2.22859
head 14.9417 -1.6971 1.11048
rclavicle -7.93896e-015 1.39149e-015
rhumerus -48.3541 15.3202 -93.0672
rradius 29.4408
rwrist -26.8049
rhand -15.4368 14.0609
rfingers 7.12502
rthumb 10.7434 -15.6444
lclavicle -7.93896e-015 1.39149e-015
lhumerus -52.2046 9.75329 68.4547
lradius 45.9536
lwrist 3.21418
lhand 3.68885 20.5331
lfingers 7.12502
lthumb 29.1186 48.2764
rfemur -42.0462 1.30051 30.5333
rtibia 42.7425
rfoot -50.0969 -31.9504
rtoes 46.5179
lfemur -22.4743 16.5809 -29.2984
ltibia 52.8383
lfoot -13.3559 45.34
ltoes 47.6738
